<?xml version="1.0" encoding="UTF-8" standalone="no"?>
<svg
   xmlns:dc="http://purl.org/dc/elements/1.1/"
   xmlns:cc="http://creativecommons.org/ns#"
   xmlns:rdf="http://www.w3.org/1999/02/22-rdf-syntax-ns#"
   xmlns:svg="http://www.w3.org/2000/svg"
   xmlns="http://www.w3.org/2000/svg"
   xmlns:sodipodi="http://sodipodi.sourceforge.net/DTD/sodipodi-0.dtd"
   xmlns:inkscape="http://www.inkscape.org/namespaces/inkscape"
   width="103.00002mm"
   height="103.00006mm"
   viewBox="0 0 103.00002 103.00006"
   version="1.1"
   id="svg8"
   inkscape:version="1.0beta2 (2b71d25, 2019-12-03)"
   sodipodi:docname="destiny-logo.svg">
  <defs
     id="defs2" />
  <sodipodi:namedview
     fit-margin-bottom="0"
     fit-margin-right="0"
     fit-margin-left="0"
     fit-margin-top="0"
     id="base"
     pagecolor="#ffffff"
     bordercolor="#666666"
     borderopacity="1.0"
     inkscape:pageopacity="0.0"
     inkscape:pageshadow="2"
     inkscape:zoom="0.83792428"
     inkscape:cx="213.84486"
     inkscape:cy="275.83413"
     inkscape:document-units="mm"
     inkscape:current-layer="layer1"
     inkscape:document-rotation="0"
     showgrid="false"
     inkscape:window-width="1440"
     inkscape:window-height="804"
     inkscape:window-x="0"
     inkscape:window-y="23"
     inkscape:window-maximized="0" />
  <metadata
     id="metadata5">
    <rdf:RDF>
      <cc:Work
         rdf:about="">
        <dc:format>image/svg+xml</dc:format>
        <dc:type
           rdf:resource="http://purl.org/dc/dcmitype/StillImage" />
        <dc:title></dc:title>
      </cc:Work>
    </rdf:RDF>
  </metadata>
  <g
     transform="translate(-51.782331,-10.149487)"
     inkscape:label="Layer 1"
     inkscape:groupmode="layer"
     id="layer1">
    <path
       style="fill:#ffffff;fill-opacity:0.1417;stroke:#87b583;stroke-width:3;stroke-miterlimit:4;stroke-dasharray:none;stroke-opacity:0.955645"
       id="path840"
       sodipodi:type="arc"
       sodipodi:cx="103.28236"
       sodipodi:cy="61.649544"
       sodipodi:rx="50"
       sodipodi:ry="50"
       sodipodi:start="0"
       sodipodi:end="6.2688249"
       sodipodi:arc-type="chord"
       d="M 153.28236,61.649544 A 50,50 0 0 1 103.46186,111.64922 50,50 0 0 1 53.283645,62.008551 50,50 0 0 1 102.74385,11.652444 50,50 0 0 1 153.2772,60.931548 Z"
       sodipodi:open="true" />
    <path
       style="fill:#87b583;fill-opacity:0.956863;stroke:none;stroke-width:3.26456;stroke-miterlimit:10;stroke-dasharray:none;stroke-opacity:1"
       id="path842"
       sodipodi:type="arc"
       sodipodi:cx="102.06046"
       sodipodi:cy="61.220558"
       sodipodi:rx="10.508355"
       sodipodi:ry="37.330402"
       sodipodi:start="0"
       sodipodi:end="6.2523721"
       sodipodi:arc-type="chord"
       d="M 112.56882,61.220558 A 10.508355,37.330402 0 0 1 102.14141,98.549853 10.508355,37.330402 0 0 1 91.553355,61.79567 10.508355,37.330402 0 0 1 101.81764,23.900124 10.508355,37.330402 0 0 1 112.56383,60.070471 Z"
       sodipodi:open="true"
       inkscape:transform-center-x="8.7976721"
       inkscape:transform-center-y="3.4725374" />
    <path
       inkscape:transform-center-y="-2.1733146"
       inkscape:transform-center-x="9.0152816"
       sodipodi:open="true"
       d="M 148.4445,-1.2262834 A 10.508355,31.525066 0 0 1 138.01709,30.297848 10.508355,31.525066 0 0 1 127.42903,-0.74060844 10.508355,31.525066 0 0 1 137.69332,-32.742932 10.508355,31.525066 0 0 1 148.43951,-2.1975181 Z"
       sodipodi:arc-type="chord"
       sodipodi:end="6.2523721"
       sodipodi:start="0"
       sodipodi:ry="31.525066"
       sodipodi:rx="10.508355"
       sodipodi:cy="-1.2262834"
       sodipodi:cx="137.93614"
       sodipodi:type="arc"
       id="path842-9"
       style="fill:#83b59b;fill-opacity:0.956863;stroke:none;stroke-width:3;stroke-miterlimit:10;stroke-dasharray:none;stroke-opacity:0.2"
       transform="rotate(31.988406)" />
    <path
       transform="matrix(-0.84815532,0.52974763,0.52974763,0.84815532,0,0)"
       style="fill:#a9c382;fill-opacity:0.956863;stroke:none;stroke-width:3;stroke-miterlimit:10;stroke-dasharray:none;stroke-opacity:0.2"
       id="path842-9-7"
       sodipodi:type="arc"
       sodipodi:cx="-36.476837"
       sodipodi:cy="107.86078"
       sodipodi:rx="10.508355"
       sodipodi:ry="31.525066"
       sodipodi:start="0"
       sodipodi:end="6.2523721"
       sodipodi:arc-type="chord"
       d="m -25.968482,107.86078 a 10.508355,31.525066 0 0 1 -10.427407,31.52413 10.508355,31.525066 0 0 1 -10.588056,-31.03846 10.508355,31.525066 0 0 1 10.264282,-32.00232 10.508355,31.525066 0 0 1 10.746193,30.54541 z"
       sodipodi:open="true"
       inkscape:transform-center-x="-9.0152811"
       inkscape:transform-center-y="-2.1733145" />
  </g>
</svg>
