<svg width="84" height="63" viewBox="0 0 84 63" fill="none" xmlns="http://www.w3.org/2000/svg">
<g id="vines 1" clip-path="url(#clip0)">
<g id="Vine">
<path id="path899" d="M1.10536 12.7607L0 13.0124C1.20502 15.9199 0.543464 14.4556 1.99884 17.4008C3.28966 19.4828 3.37633 19.8047 4.98264 21.6625C7.55353 24.6361 10.7123 26.9765 13.9123 29.1835C16.4159 30.8117 17.0282 31.2521 19.6205 32.7668C23.4106 34.9813 27.3408 36.9362 31.3201 38.7757C32.3159 39.2181 33.3056 39.6748 34.3075 40.1033C35.9687 40.8137 38.3097 41.7419 40.0089 42.3744C42.0845 43.147 43.2758 43.5276 45.3621 44.2503C46.2764 44.5671 47.1887 44.8888 48.102 45.2084C50.7207 46.1764 53.3469 47.1341 55.855 48.3736C58.194 49.5295 60.4094 50.9158 62.4122 52.6084C64.0209 54.1024 64.5149 54.4634 65.9252 56.1669C67.4728 58.0364 68.7393 60.1154 69.7456 62.3345V62.335C70.0977 62.2303 70.4616 62.152 70.8231 62.0683C70.1668 60.6122 69.4108 59.2061 68.5126 57.8929C68.0394 57.2011 67.5286 56.5366 66.9954 55.893C65.5711 54.1742 65.0977 53.8286 63.4778 52.3165C61.7076 50.9504 61.2096 50.4795 59.277 49.3409C56.9094 47.9461 54.3618 46.8672 51.8061 45.8812C50.9122 45.5363 50.0075 45.2205 49.1081 44.8901C45.4566 43.6022 41.7774 42.3937 38.1734 40.9745C35.4403 39.8983 35.0054 39.676 32.2771 38.4796C27.2671 36.1679 22.3347 33.6582 17.6506 30.7209C16.7122 30.1325 15.795 29.5096 14.8673 28.904C11.6942 26.6986 8.57101 24.3465 6.02392 21.384C4.45022 19.5537 4.33062 19.1858 3.06183 17.1388C1.62312 14.2045 2.27107 15.6666 1.10536 12.7607Z" fill="#A7BCA7"/>
<path id="path905" d="M69.5669 62.3932C69.9661 62.2614 70.3834 62.17 70.7987 62.0743C70.539 60.8075 70.3171 59.5319 70.2204 58.2364C70.1199 56.8894 70.1598 56.6647 70.1968 55.3208C70.3788 53.181 70.6905 50.9223 71.8665 49.064C72.0929 48.7061 72.3756 48.3887 72.63 48.0509C73.4793 47.1226 74.4563 46.3273 75.5857 45.7929C75.9139 45.6377 76.2605 45.5313 76.5998 45.4047C76.9606 45.4047 77.3214 45.3833 77.6822 45.3728C78.5583 45.5746 78.9377 45.5778 79.7023 46.0888C80.7114 46.7632 81.5119 47.9176 82.0013 49.0319C82.1811 49.4412 82.2911 49.8802 82.4361 50.3045C82.7904 51.9902 82.8931 53.5396 82.0614 55.1332C81.6075 56.0028 81.3306 56.19 80.6674 56.874C79.9015 57.3774 79.8348 57.4647 79.2203 57.697C79.2487 57.6774 79.261 57.6589 79.2371 57.6456C78.9281 57.4726 78.5313 57.541 78.2001 57.4163C77.2594 57.0619 76.8844 56.6537 76.1023 56.0253L74.8911 56.3652C75.6639 57.0109 76.0429 57.431 76.9715 57.8206C78.1711 58.3239 78.7844 58.0821 80.2073 57.7329C80.515 57.6574 80.8028 57.5012 81.0805 57.3426C81.3846 57.169 81.6569 56.9412 81.9451 56.7405C82.6056 56.0315 82.8757 55.841 83.3232 54.9491C84.1546 53.2919 84.0233 51.7708 83.6617 50.0333C83.5159 49.6019 83.4045 49.1555 83.2241 48.7387C82.7452 47.6322 81.9227 46.4022 80.9368 45.7125C80.1835 45.1855 79.767 45.1626 78.8978 44.939C78.5285 44.943 78.1566 44.8976 77.79 44.9511C76.5475 45.1326 75.4392 45.3374 74.3217 45.8873C73.1936 46.4425 72.2196 47.2548 71.375 48.1979C71.1203 48.543 70.8375 48.8677 70.6112 49.2328C69.4417 51.1201 69.1444 53.3834 68.9741 55.5453C68.9624 56.0297 68.934 56.5143 68.9388 56.9985C68.9565 58.8222 69.2137 60.6184 69.5669 62.3933L69.5669 62.3932Z" fill="#A7BCA7"/>
<path id="path921" d="M24.759 34.1857C23.8238 33.5804 22.9635 32.8652 22.1176 32.1385C21.1861 31.313 20.3265 30.4057 19.591 29.3909C19.0949 28.7065 18.9985 28.5098 18.5591 27.7784C17.9172 26.635 17.4103 25.414 17.0284 24.1502C16.8164 23.4489 16.7838 23.2437 16.628 22.5436C16.4348 21.5868 16.3852 20.6072 16.5393 19.6352C16.5797 19.5015 16.5761 19.2709 16.7153 19.1831C16.7435 19.1659 16.8424 19.1521 16.8104 19.1594C15.5018 19.4611 15.1393 19.3946 15.7201 19.4704C16.4811 19.7514 17.1337 20.2733 17.7741 20.7633C18.8792 21.673 19.7709 22.816 20.4863 24.0691C20.6693 24.3896 20.8304 24.7231 21.0025 25.0501C21.7354 26.5295 22.3345 28.096 22.6399 29.739C22.6885 30.0007 22.7183 30.2661 22.7575 30.5297C22.8412 31.3071 22.8632 32.0962 22.7691 32.8777C22.7446 33.0844 22.6695 33.5112 22.6331 33.7267L23.9903 33.4971C24.0193 33.3009 24.092 32.822 24.1111 32.64C24.1939 31.8479 24.1608 31.0504 24.057 30.2661C24.0141 30.0002 23.9804 29.7322 23.9281 29.4682C23.6013 27.8187 22.9938 26.2408 22.2539 24.7524C22.0833 24.422 21.923 24.0855 21.742 23.7612C21.0371 22.4977 20.1695 21.3276 19.0784 20.3933C18.442 19.89 17.7958 19.3768 17.0613 19.0289C16.4348 18.8123 16.8371 18.92 15.4047 19.2672C15.3431 19.282 15.2684 19.4353 15.2519 19.4791C15.2076 19.5965 15.1885 19.7505 15.1678 19.8702C15.0505 20.8596 15.1222 21.8504 15.3292 22.817C15.39 23.0753 15.4447 23.3353 15.5117 23.5918C15.9218 25.1625 16.521 26.6744 17.2927 28.0874C17.459 28.3685 17.6169 28.6552 17.7918 28.9306C18.6389 30.2639 19.6817 31.4422 20.8423 32.4925C21.668 33.2252 22.5164 33.9299 23.4002 34.5886L24.759 34.1857V34.1857Z" fill="#A7BCA7"/>
<path id="path923" d="M33.5179 39.0433C31.499 38.9221 29.4703 39.0473 27.4499 39.179C25.3338 39.344 23.2412 39.7575 21.1689 40.2455C20.1161 40.4934 18.9994 40.8393 17.9928 41.2583C17.5614 41.4379 17.1477 41.6612 16.7251 41.8626C16.388 42.073 16.0346 42.2576 15.7138 42.4938C15.0388 42.9907 14.344 43.7118 14.1228 44.5633C13.9645 45.1727 14.0885 45.4197 14.2111 46.008C14.3375 46.2484 14.4421 46.5027 14.5903 46.7293C15.2488 47.7364 16.3166 48.5788 17.3769 49.0971C17.6779 49.2442 17.9971 49.3505 18.3071 49.4772C18.9976 49.6302 19.5884 49.827 20.3115 49.7343C21.0398 49.6409 21.754 49.4436 22.4752 49.2983L21.1726 49.3536C21.2957 49.3357 21.6654 49.3121 21.5421 49.3002C19.0855 49.0609 22.05 49.5992 19.5494 49.0879C19.2421 48.9665 18.9259 48.8658 18.6277 48.7235C17.5856 48.2262 16.5279 47.4058 15.8813 46.4216C15.7398 46.2062 15.6405 45.964 15.5201 45.7353C15.4049 45.18 15.2875 44.9506 15.4412 44.3771C15.6604 43.5587 16.3324 42.872 16.9831 42.3947C17.2954 42.1651 17.6391 41.9851 17.9671 41.7802C18.3811 41.5833 18.7862 41.3645 19.2089 41.1895C20.417 40.6892 21.0838 40.5333 22.3573 40.1946C22.5566 40.1416 22.7558 40.0857 22.9582 40.0489C24.6027 39.7491 24.67 39.7717 26.2819 39.6021C28.2448 39.4735 30.2205 39.348 32.1795 39.5061L33.5178 39.0433H33.5179Z" fill="#A7BCA7"/>
<path id="path925" d="M1.35905 15.8973C1.35254 15.895 1.34536 15.8986 1.343 15.9054C1.34065 15.9121 1.34402 15.9194 1.35052 15.9217C1.35703 15.9239 1.36421 15.9203 1.36657 15.9136C1.36892 15.9069 1.36555 15.8996 1.35905 15.8973Z" fill="#A7BCA7" stroke="black" stroke-width="0.19014"/>
<path id="path927" d="M2.30366 15.4365C2.25116 15.054 2.1766 14.6762 2.12628 14.2933C2.08078 13.8862 2.004 13.4847 1.94884 13.0791C1.84086 12.4419 1.80192 11.7954 1.7728 11.1488C1.7658 10.2083 1.8389 9.25867 2.05141 8.33683C2.10641 8.09819 2.17883 7.86376 2.24255 7.62724C2.71797 6.19926 3.41742 4.78691 4.39606 3.6413C4.63084 3.36644 4.89464 3.11911 5.14391 2.85802C5.44209 2.61724 5.72046 2.3476 6.0385 2.13577C7.32406 1.27995 8.89705 0.772235 10.3867 0.516045C10.6908 0.463745 11.0014 0.491834 11.3087 0.479134C12.0722 0.447634 12.8357 0.415642 13.5992 0.383842C14.4362 0.429942 15.2776 0.432234 16.1104 0.522194C19.2526 0.861774 22.6427 1.79642 25.0339 3.99162C25.5339 4.45066 25.9187 5.02701 26.3612 5.54469C26.6515 6.07537 27.028 6.56383 27.2322 7.1367C27.7823 8.68055 27.4411 10.2121 26.299 11.3961C25.3511 12.3786 24.8738 12.3631 23.6357 12.7728C23.4734 12.722 23.315 12.6565 23.1486 12.6211C22.5212 12.4898 21.8728 12.4503 21.2566 12.275C20.0757 11.939 18.5171 11.2126 17.4783 10.5499C16.1605 9.70912 15.8606 9.29966 14.798 8.23183L13.6263 8.5492C14.026 8.94083 14.4003 9.36165 14.8254 9.7241C15.9561 10.6882 16.8345 11.2376 18.1842 11.8693C18.8188 12.1663 19.4655 12.4451 20.1356 12.6493C20.7438 12.8347 21.367 13.026 22.0049 13.0337C22.9586 13.0451 23.9056 12.8152 24.8559 12.706C26.1003 12.2617 26.5881 12.2641 27.5263 11.2458C28.6712 10.0031 28.9783 8.42917 28.3923 6.85738C28.1761 6.27782 27.7878 5.78558 27.4856 5.24966C27.0331 4.72566 26.6382 4.14257 26.1281 3.67767C23.7136 1.47687 20.3168 0.523575 17.1544 0.158455C16.3301 0.0632549 15.4969 0.05275 14.6681 0C11.9232 0.0924 12.2953 -0.0104999 9.19632 0.57032C7.65704 0.85881 6.09371 1.3555 4.76736 2.25161C4.4462 2.46915 4.16574 2.74511 3.86488 2.99178C3.61343 3.25814 3.34775 3.51117 3.1106 3.79098C2.29501 4.7533 1.65902 5.90698 1.18993 7.08068C1.09113 7.32788 1.01398 7.58327 0.925919 7.83454C0.859919 8.0751 0.785028 8.31347 0.727798 8.55621C0.508038 9.4896 0.426942 10.4532 0.419922 11.4067C0.444622 12.0584 0.474426 12.711 0.577736 13.354C0.630936 13.7599 0.700177 14.1628 0.749237 14.5693C0.800737 14.9532 0.882596 15.3314 0.918526 15.7177L2.30354 15.4364L2.30366 15.4365Z" fill="#A7BCA7"/>
<path id="path1059" d="M16.3397 18.5618C15.7895 18.6331 15.3224 19.079 15.2136 19.6212C15.1198 20.1355 15.1334 20.6627 15.1423 21.1833C15.1632 22.1844 15.3984 23.1638 15.6457 24.1289C16.0869 25.6745 16.6852 27.1802 17.4973 28.57C18.135 29.6942 18.8982 30.747 19.7778 31.6945C20.4714 32.4424 21.2216 33.1389 22.0174 33.7766C22.4959 34.1281 23.2098 34.0893 23.6488 33.6898C24.0041 33.3906 24.1343 32.9103 24.1251 32.4604C24.1376 31.6481 24.1559 30.8302 24.0201 30.026C23.7017 27.8208 22.8648 25.7235 21.8228 23.7659C20.9912 22.211 19.8986 20.7749 18.5149 19.671C18.0781 19.3343 17.6391 18.9957 17.1643 18.7137C16.9135 18.5783 16.6223 18.5259 16.3397 18.5618V18.5618Z" fill="#A7BCA7"/>
</g>
</g>
<defs>
<clipPath id="clip0">
<rect width="83.9433" height="62.3931" fill="white"/>
</clipPath>
</defs>
</svg>
